<?xml version="1.0" encoding="utf-8"?><svg viewBox="0 0 40 40" xmlns="http://www.w3.org/2000/svg" xmlns:xlink="http://www.w3.org/1999/xlink"><style>:root>svg{display:none}:root>svg:target{display:block}</style><svg fill="none" viewBox="0 0 7 10" id="arrow-right" xmlns="http://www.w3.org/2000/svg"><path d="M1.423 9.756 6.178 5 1.423.244.244 1.422 3.822 5 .244 8.577l1.179 1.179Z" fill="#fff"/></svg><svg fill="none" viewBox="0 0 40 40" id="calendar" xmlns="http://www.w3.org/2000/svg"><path d="M28.333 1.667a1.666 1.666 0 1 0-3.333 0V5a1.666 1.666 0 1 0 3.333 0V1.667ZM8.333 5A1.666 1.666 0 1 1 5 5V1.667a1.666 1.666 0 1 1 3.333 0V5ZM30 13.333V30H3.333V13.333H30Zm3.333-10H30V5a3.337 3.337 0 0 1-3.333 3.333A3.337 3.337 0 0 1 23.333 5V3.333H10V5a3.337 3.337 0 0 1-3.333 3.333A3.337 3.337 0 0 1 3.333 5V3.333H0v30h33.333v-30Zm-19.41 23.334c-2.196 0-3.653-1.269-3.613-3.675h2.075c.037 1.066.467 1.845 1.512 1.845.691 0 1.386-.412 1.386-1.332 0-1.167-.808-1.252-2.166-1.252v-1.628c.955.083 1.993-.053 1.993-1.013 0-.759-.615-1.105-1.185-1.105-.958 0-1.322.703-1.303 1.671h-2.094c.087-2.335 1.504-3.511 3.382-3.511 1.613 0 3.282 1.021 3.282 2.733 0 .887-.39 1.575-1.064 1.912.88.338 1.412 1.135 1.412 2.155-.002 2.001-1.655 3.2-3.617 3.2Zm9.1 0h-2.176V20.42h-2.355v-1.712c1.495.04 2.541-.388 2.761-1.855h1.77v9.814ZM40 8.333V40H3.333v-3.333h33.334V8.333H40Z" fill="#fff"/></svg><svg fill="none" viewBox="0 0 30 30" id="fb" xmlns="http://www.w3.org/2000/svg"><g clip-path="url(#ca)"><path d="M15 0C6.716 0 0 6.716 0 15c0 8.284 6.716 15 15 15 8.284 0 15-6.716 15-15 0-8.284-6.716-15-15-15Zm3.75 10h-1.688c-.672 0-.812.276-.812.973V12.5h2.5l-.261 2.5H16.25v8.75H12.5V15H10v-2.5h2.5V9.615c0-2.211 1.164-3.365 3.786-3.365h2.464V10Z" fill="#fff"/></g><defs><clipPath id="ca"><path fill="#fff" d="M0 0h30v30H0z"/></clipPath></defs></svg><svg fill="none" viewBox="0 0 30 30" id="inst" xmlns="http://www.w3.org/2000/svg"><path d="M18.536 7.878c-.922-.043-1.2-.05-3.536-.05-2.336 0-2.613.008-3.535.05-2.374.108-3.479 1.232-3.587 3.587-.042.922-.052 1.199-.052 3.535 0 2.336.01 2.613.052 3.536.108 2.349 1.208 3.479 3.587 3.588.921.041 1.199.051 3.535.051 2.337 0 2.614-.009 3.536-.051 2.374-.108 3.478-1.235 3.588-3.588.041-.922.05-1.2.05-3.536 0-2.336-.009-2.613-.05-3.535-.11-2.354-1.216-3.479-3.588-3.587ZM15 19.494a4.494 4.494 0 1 1 0-8.988 4.494 4.494 0 0 1 0 8.988Zm4.671-8.114a1.05 1.05 0 1 1 0-2.1 1.05 1.05 0 0 1 0 2.1ZM17.916 15a2.916 2.916 0 1 1-5.832 0 2.916 2.916 0 0 1 5.832 0ZM15 0C6.716 0 0 6.716 0 15c0 8.284 6.716 15 15 15 8.284 0 15-6.716 15-15 0-8.284-6.716-15-15-15Zm8.698 18.608c-.144 3.18-1.916 4.943-5.09 5.09-.933.042-1.232.052-3.608.052-2.376 0-2.674-.01-3.607-.052-3.18-.147-4.944-1.912-5.09-5.09-.043-.933-.053-1.232-.053-3.608 0-2.376.01-2.674.053-3.607.146-3.18 1.91-4.944 5.09-5.09.933-.043 1.23-.053 3.607-.053 2.376 0 2.675.01 3.609.054 3.181.146 4.946 1.915 5.088 5.088.043.934.053 1.232.053 3.608 0 2.376-.01 2.675-.052 3.608Z" fill="#fff"/></svg><svg fill="none" viewBox="0 0 20 15" id="ok" xmlns="http://www.w3.org/2000/svg"><path d="m.25 7.321 7.27 6.491a.749.749 0 0 0 1.058-.059l11.23-12.501A.748.748 0 1 0 18.692.251L7.961 12.196 1.25 6.202a.748.748 0 1 0-1 1.119Z" fill="#fff"/></svg><svg fill="none" viewBox="0 0 40 40" id="people" xmlns="http://www.w3.org/2000/svg"><g clip-path="url(#fa)"><path fill-rule="evenodd" clip-rule="evenodd" d="m34.373 37.457-2.706-1.449-2.709 1.449.54-3.022-2.213-2.128 3.042-.42 1.34-2.764 1.34 2.764 3.041.42-2.215 2.128.54 3.022Zm-11.666 0L20 36.008l-2.708 1.449.541-3.022-2.215-2.128 3.042-.42L20 29.123l1.34 2.764 3.042.42-2.215 2.128.54 3.022Zm-11.667 0-2.707-1.449-2.708 1.449.542-3.022-2.215-2.128 3.041-.42 1.34-2.764 1.34 2.764 3.042.42-2.215 2.128.54 3.022Zm27.293-10.834H1.667c-.92 0-1.667.745-1.667 1.667v10c0 .922.747 1.667 1.667 1.667h36.666c.922 0 1.667-.745 1.667-1.667v-10c0-.922-.745-1.667-1.667-1.667ZM.003 24.957h8.33c.014-2.024-.001-3.815 0-5.022.009-6.655 2.915-5.193 2.915-11.105 0-2.512-1.638-3.873-3.746-3.873-3.115 0-5.282 2.978-2.332 8.548.968 1.832-1.033 2.265-3.183 2.762C.123 16.697 0 18.012 0 19.588l.003 5.369Zm38.01-8.69c-2.15-.497-4.151-.93-3.183-2.762 2.95-5.57.783-8.548-2.332-8.548-2.108 0-3.746 1.361-3.746 3.873 0 5.54 2.865 4.507 2.915 11.127.013 1.62-.015 2.185 0 5h8.33L40 19.588c0-1.576-.123-2.891-1.987-3.321Zm-8.018 8.69H10.003L10 19.747c0-2.097.167-4.137 2.647-4.71 2.806-.649 5.573-1.227 4.241-3.682-3.943-7.273-1.123-11.398 3.11-11.398 4.152 0 7.044 3.971 3.11 11.398-1.291 2.44 1.377 3.02 4.242 3.682 2.483.573 2.648 2.615 2.648 4.715l-.003 5.205Z" fill="#fff"/></g><defs><clipPath id="fa"><path fill="#fff" d="M0 0h40v40H0z"/></clipPath></defs></svg><svg fill="none" viewBox="0 0 40 31" id="tablet" xmlns="http://www.w3.org/2000/svg"><path d="M28.333 6.667H11.667v1.666h16.666V6.667Zm0 3.333H11.667v1.667h16.666V10Zm-6.666 3.333h-10V15h10v-1.667Zm15.07 7.73c.1.425-.462.69-.652.24-.227-.55-.593-2.89-.912-5.243-.171-1.26-1.845-1.105-1.84.197.005 2.025.004 3.713 0 6.711-.003 2.559 1.162 2.609 2.022 5.479.147.493.273 1.03.377 1.555L40 28.51c-1.488-2.912-.77-5.21-.622-7.092.204-2.571-.48-2.821-3.653-5.913.19 1.36.587 3.775 1.012 5.558ZM4.275 15.507C1.102 18.597.418 18.848.622 21.42c.148 1.88.866 4.178-.622 7.09L4.27 30c.103-.523.23-1.062.377-1.555.858-2.868 2.023-2.92 2.02-5.478-.004-3-.005-4.687 0-6.712.005-1.302-1.67-1.457-1.84-.197-.317 2.354-.685 4.694-.912 5.244-.188.451-.75.185-.652-.24.425-1.782.822-4.197 1.012-5.555Zm4.058 7.826L8.34 20h23.32l.007 3.333H8.333ZM5 13.635V2.5A2.5 2.5 0 0 1 7.5 0h25A2.5 2.5 0 0 1 35 2.5v11.135a2.586 2.586 0 0 0-.727-.108 2.603 2.603 0 0 0-1.836.761c-.482.484-.749 1.144-.772 1.864V3.333H8.333v12.815c-.023-.72-.29-1.378-.771-1.861a2.607 2.607 0 0 0-1.837-.762c-.253 0-.493.043-.725.11Z" fill="#fff"/></svg><svg fill="none" viewBox="0 0 30 30" id="twitter" xmlns="http://www.w3.org/2000/svg"><path d="M15 0C6.716 0 0 6.716 0 15c0 8.284 6.716 15 15 15 8.284 0 15-6.716 15-15 0-8.284-6.716-15-15-15Zm7.582 12.056c.23 5.05-3.537 10.68-10.205 10.68-2.027 0-3.913-.595-5.502-1.614a7.223 7.223 0 0 0 5.315-1.486 3.598 3.598 0 0 1-3.355-2.494 3.6 3.6 0 0 0 1.622-.06c-1.726-.348-2.918-1.903-2.88-3.567a3.58 3.58 0 0 0 1.627.449A3.596 3.596 0 0 1 8.092 9.17a10.19 10.19 0 0 0 7.4 3.751c-.523-2.245 1.18-4.409 3.5-4.409 1.03 0 1.964.437 2.62 1.134a7.162 7.162 0 0 0 2.28-.871 3.606 3.606 0 0 1-1.58 1.986 7.168 7.168 0 0 0 2.062-.566 7.208 7.208 0 0 1-1.791 1.861Z" fill="#fff"/></svg></svg>